<mxfile>
    <diagram id="X39GJvoUf2DeszRfcUCI" name="Page-1">
        <mxGraphModel dx="171" dy="143" grid="1" gridSize="10" guides="1" tooltips="1" connect="1" arrows="1" fold="1" page="1" pageScale="1" pageWidth="850" pageHeight="1100" math="0" shadow="0">
            <root>
                <mxCell id="0"/>
                <mxCell id="1" parent="0"/>
                <mxCell id="2" value="" style="whiteSpace=wrap;html=1;" vertex="1" parent="1">
                    <mxGeometry x="350" y="150" width="270" height="155" as="geometry"/>
                </mxCell>
                <mxCell id="4" value="" style="shape=singleArrow;whiteSpace=wrap;html=1;arrowWidth=0.4328147888183594;arrowSize=0.29747074672154017;fillColor=#647687;strokeColor=#314354;fontColor=#ffffff;" vertex="1" parent="1">
                    <mxGeometry x="630" y="208.75" width="80" height="37.5" as="geometry"/>
                </mxCell>
                <mxCell id="5" value="" style="ellipse;whiteSpace=wrap;html=1;aspect=fixed;fillColor=#1ba1e2;strokeColor=#006EAF;fontColor=#ffffff;" vertex="1" parent="1">
                    <mxGeometry x="365" y="177.5" width="100" height="100" as="geometry"/>
                </mxCell>
                <mxCell id="6" value="" style="ellipse;whiteSpace=wrap;html=1;aspect=fixed;fillColor=#1ba1e2;strokeColor=#006EAF;fontColor=#ffffff;" vertex="1" parent="1">
                    <mxGeometry x="500" y="177.5" width="100" height="100" as="geometry"/>
                </mxCell>
                <mxCell id="8" value="SENSOR" style="text;html=1;strokeColor=none;fillColor=none;align=center;verticalAlign=middle;whiteSpace=wrap;rounded=0;" vertex="1" parent="1">
                    <mxGeometry x="395" y="210" width="40" height="30" as="geometry"/>
                </mxCell>
                <mxCell id="9" value="SIGNAL&amp;nbsp;&lt;br&gt;CONDITIONING" style="text;html=1;strokeColor=none;fillColor=none;align=center;verticalAlign=middle;whiteSpace=wrap;rounded=0;" vertex="1" parent="1">
                    <mxGeometry x="535" y="215" width="40" height="20" as="geometry"/>
                </mxCell>
                <mxCell id="10" value="TRANSDUCER" style="text;html=1;strokeColor=none;fillColor=none;align=center;verticalAlign=middle;whiteSpace=wrap;rounded=0;" vertex="1" parent="1">
                    <mxGeometry x="465" y="120" width="40" height="20" as="geometry"/>
                </mxCell>
                <mxCell id="12" value="iNPUT&lt;br&gt;SIGNAL" style="text;html=1;strokeColor=none;fillColor=none;align=center;verticalAlign=middle;whiteSpace=wrap;rounded=0;" vertex="1" parent="1">
                    <mxGeometry x="180" y="220" width="40" height="20" as="geometry"/>
                </mxCell>
                <mxCell id="13" value="OUTPUT&lt;br&gt;SIGNAL" style="text;html=1;strokeColor=none;fillColor=none;align=center;verticalAlign=middle;whiteSpace=wrap;rounded=0;" vertex="1" parent="1">
                    <mxGeometry x="730" y="217.5" width="40" height="20" as="geometry"/>
                </mxCell>
                <mxCell id="14" value="" style="shape=singleArrow;whiteSpace=wrap;html=1;arrowWidth=0.4328147888183594;arrowSize=0.29747074672154017;fillColor=#647687;strokeColor=#314354;fontColor=#ffffff;" vertex="1" parent="1">
                    <mxGeometry x="250" y="208.75" width="80" height="37.5" as="geometry"/>
                </mxCell>
                <mxCell id="15" value="" style="shape=cross;whiteSpace=wrap;html=1;fillColor=#647687;strokeColor=#314354;fontColor=#ffffff;" vertex="1" parent="1">
                    <mxGeometry x="475" y="217.5" width="20" height="20" as="geometry"/>
                </mxCell>
            </root>
        </mxGraphModel>
    </diagram>
</mxfile>